<?xml version="1.0" standalone="no"?>
<!DOCTYPE svg PUBLIC "-//W3C//DTD SVG 20010904//EN"
 "http://www.w3.org/TR/2001/REC-SVG-20010904/DTD/svg10.dtd">
<svg version="1.0" xmlns="http://www.w3.org/2000/svg"
 width="815.000000pt" height="260.000000pt" viewBox="0 0 815.000000 260.000000"
 preserveAspectRatio="xMidYMid meet">

<g transform="translate(0.000000,260.000000) scale(0.100000,-0.100000)"
fill="#000000" stroke="none">
<path d="M0 1300 l0 -1300 4075 0 4075 0 0 1300 0 1300 -4075 0 -4075 0 0
-1300z m2775 1150 c-7 -22 -111 -208 -127 -227 -8 -10 -110 -13 -447 -13 -368
0 -440 -2 -458 -15 -28 -20 -136 -212 -129 -231 5 -12 69 -14 436 -14 289 0
430 -3 430 -10 0 -21 -132 -241 -151 -250 -12 -7 -172 -10 -437 -10 -312 1
-425 -2 -445 -11 -17 -8 -40 -36 -61 -73 -18 -34 -44 -80 -57 -103 -13 -23
-20 -45 -16 -50 5 -4 202 -9 438 -11 236 -1 429 -6 429 -10 0 -4 -30 -61 -68
-127 l-67 -120 -446 -5 c-342 -4 -450 -8 -461 -18 -25 -21 -130 -213 -124
-228 4 -12 81 -14 436 -14 289 0 430 -3 430 -10 0 -21 -132 -240 -150 -250
-24 -13 -550 -13 -583 -1 -19 7 -60 71 -161 248 -74 131 -138 245 -141 255 -6
14 8 16 134 20 165 4 154 -3 235 138 40 69 51 98 44 107 -8 10 -77 13 -283 13
-245 0 -275 2 -293 18 -18 15 -142 221 -142 236 0 3 198 7 440 8 425 3 440 4
460 23 26 27 130 208 124 217 -3 5 -257 8 -565 8 -456 0 -566 3 -593 14 -27
11 -47 37 -101 126 -39 65 -64 115 -58 121 4 4 332 10 734 11 664 3 727 4 751
20 14 9 50 59 79 110 28 51 59 101 67 111 14 16 49 17 459 17 438 0 444 0 438
-20z m1365 -582 c72 -222 210 -642 306 -935 96 -293 174 -535 174 -538 0 -3
-58 -5 -129 -5 l-129 0 -79 238 -80 237 -418 0 -418 0 -79 -237 -80 -238 -63
0 -63 0 68 208 c38 114 177 537 310 940 l241 732 154 0 154 0 131 -402z m1524
374 c195 -54 334 -158 408 -309 39 -79 43 -92 46 -182 7 -158 -29 -259 -126
-363 -72 -77 -222 -160 -329 -183 -18 -4 -33 -10 -33 -14 0 -4 126 -186 279
-404 l280 -397 -153 0 -152 0 -254 367 c-140 201 -262 375 -270 384 -14 17
-28 18 -146 12 l-132 -6 -7 -378 -8 -379 -117 0 -117 0 -6 302 c-4 166 -7 589
-7 941 l0 639 383 -4 c353 -4 388 -6 461 -26z m986 -732 l0 -761 26 -51 c135
-267 498 -320 703 -103 27 28 61 75 75 103 l26 51 0 761 0 760 131 0 130 0 -3
-712 c-4 -791 -2 -758 -73 -904 -62 -128 -192 -227 -360 -276 -70 -20 -101
-23 -245 -22 -151 0 -173 3 -255 28 -49 15 -110 39 -136 52 -116 63 -210 182
-251 316 -22 72 -22 80 -26 796 l-3 722 131 0 130 0 0 -760z m-5075 -1130 c8
-13 -125 -242 -139 -237 -15 5 -135 208 -136 230 0 15 13 17 134 17 76 0 137
-4 141 -10z"/>
<path d="M3601 1568 c-101 -304 -186 -559 -189 -565 -3 -10 75 -13 373 -13
354 0 376 1 371 18 -3 9 -88 263 -188 565 l-183 547 -184 -552z"/>
<path d="M5080 1711 l0 -441 119 0 c231 0 388 41 497 128 106 85 151 193 142
342 -10 170 -122 309 -304 377 -63 24 -85 27 -261 31 l-193 4 0 -441z"/>
</g>
</svg>
